HIERARCHY
ROOT Hips
{
	OFFSET 0.00000 0.00000 0.00000
	CHANNELS 6 Xposition Yposition Zposition Yrotation Zrotation Xrotation 
	JOINT Lumbar
	{
		OFFSET 0 0 0
		CHANNELS 3 Zrotation Xrotation Yrotation
		JOINT Neck
		{
			OFFSET 0.00 0.2701 0.00
			CHANNELS 3 Zrotation Xrotation Yrotation
			End Site
			{
				OFFSET 0.00 0.1379 0.00
			}
		}
		JOINT RightShoulder
		{
			OFFSET 0.0119 0.2289 0.1181
			CHANNELS 3 Zrotation Xrotation Yrotation
			JOINT RightElbow
			{
				OFFSET 0.00 -0.1475 0.00
				CHANNELS 2 Zrotation Yrotation
				JOINT RightWrist
				{
					OFFSET 0.00 -0.1605 0.00
					CHANNELS 2 Zrotation Xrotation
					End Site
					{
						OFFSET 0.0040 -0.1068 0.0006
					}
				}
			}
		}
		JOINT LeftShoulder
		{
			OFFSET 0.0119 0.2289 -0.1181
			CHANNELS 3 Zrotation Xrotation Yrotation
			JOINT LeftElbow
			{
				OFFSET 0.00 -0.1475 0.00
				CHANNELS 2 Zrotation Yrotation
				JOINT LeftWrist
				{
					OFFSET 0.00 -0.1605 0.00
					CHANNELS 2 Zrotation Xrotation
					End Site
					{
						OFFSET 0.0040 -0.1068 -0.0006
					}
				}
			}
		}
	}
	JOINT RightHip
	{
		OFFSET 0.0316 -0.0424 0.0458
		CHANNELS 3 Zrotation Xrotation Yrotation
		JOINT RightKnee
		{
			OFFSET 0.00 -0.2438 0.00
			CHANNELS 1 Zrotation
			JOINT RightAnkle
			{
				OFFSET 0.00 -0.2449 0.00
				CHANNELS 3 Zrotation Xrotation Yrotation
				End Site
				{
					OFFSET 0.1237 -0.0542 0.0051
				}
			}
		}
	}
	JOINT LeftHip
	{
		OFFSET 0.0316 -0.0424 -0.0458
		CHANNELS 3 Zrotation Xrotation Yrotation
		JOINT LeftKnee
		{
			OFFSET 0.00 -0.2438 0.00
			CHANNELS 1 Zrotation
			JOINT LeftAnkle
			{
				OFFSET 0.00 -0.2449 0.00
				CHANNELS 3 Zrotation Xrotation Yrotation
				End Site
				{
					OFFSET 0.1237 -0.0542 -0.0051
				}
			}
		}
	}
}
MOTION
Frames: 26
Frame Time: 0.02
0.10583 -0.40044 -0.07998 -135.15831 -27.91279 -9.4192 26.32432 11.58145 -24.76694 15.34913 -11.52899 -2.1061 139.0356 -1.50431 55.63255 17.18781 52.01234 43.74135 -6.0065 77.85943 -13.51756 -22.69466 58.88396 -114.82738 -39.00162 7.28525 126.68097 13.69369 37.11857 -139.09176 22.04567 -33.68837 -2.53633 107.36004 2.65009 -4.55408 -147.07827 22.28699 -33.11408 -13.00378
0.10589 -0.40015 -0.08146 -134.86614 -28.08317 -9.4602 26.32879 11.67153 -25.11722 15.31369 -11.44879 -2.10613 139.47077 -1.70126 55.63343 17.8279 52.12952 43.91284 -5.97523 77.09148 -13.69937 -22.41724 60.53168 -115.33215 -38.498 7.41975 126.68096 13.69367 37.13135 -139.08271 21.60364 -32.82583 -3.85323 108.17168 2.62405 -3.15597 -147.07827 22.28718 -33.11455 -13.00411
0.10587 -0.39982 -0.08308 -134.60618 -28.21031 -9.57036 26.25982 11.75715 -25.57409 15.30181 -11.42627 -2.10616 139.90254 -1.88402 55.63345 18.40824 52.32116 44.00767 -5.93395 76.53294 -14.04165 -21.81396 61.65917 -116.45475 -38.20114 7.64816 126.68096 13.69366 37.12736 -139.0985 21.05944 -31.31316 -5.27937 108.99117 2.68478 -2.2503 -147.07827 22.2874 -33.11516 -13.00459
0.10586 -0.39953 -0.08462 -134.33826 -28.35252 -9.64271 26.22943 11.83336 -25.97118 15.26604 -11.38292 -2.10619 140.32389 -2.06352 55.63318 18.99337 52.4963 44.14414 -5.89591 75.88781 -14.28986 -21.38814 63.00355 -117.22885 -37.79874 7.82291 126.68095 13.69364 37.12684 -139.10508 20.58789 -30.17427 -6.60637 109.78788 2.71346 -1.24692 -147.07827 22.28757 -33.11563 -13.00497
0.10596 -0.39916 -0.08628 -134.04458 -28.51879 -9.74192 26.17729 11.95569 -26.41814 15.2907 -11.3153 -2.10622 140.79763 -2.28563 55.63335 19.67434 52.602 44.24957 -5.86299 75.20442 -14.62407 -20.84302 64.43613 -118.28006 -37.43873 8.04283 126.68094 13.69362 37.12829 -139.09837 20.00771 -28.74024 -8.17237 110.67689 2.7105 0.29197 -147.07827 22.28788 -33.11638 -13.0055
0.10582 -0.39894 -0.08769 -133.81202 -28.62286 -9.80157 26.15314 11.98257 -26.78484 15.19389 -11.31263 -2.10625 141.16087 -2.41405 55.63328 20.14165 52.86612 44.40251 -5.81759 74.65114 -14.81767 -20.46758 65.56089 -118.89906 -37.03995 8.19085 126.68094 13.69361 37.12733 -139.12686 19.6264 -27.7476 -9.26012 111.36918 2.79352 0.61423 -147.07827 22.28792 -33.11662 -13.00575
0.10501 -0.39915 -0.0884 -133.7312 -28.56578 -9.73627 26.22152 11.7365 -26.91572 14.74847 -11.47378 -2.10628 141.21755 -2.29957 55.6333 20.0248 53.57951 44.70337 -5.7349 74.4078 -14.59508 -20.63507 65.94041 -118.24136 -36.51138 8.12508 126.68094 13.69362 37.12765 -139.24799 19.84862 -28.1988 -8.93501 111.54175 3.10173 -2.51607 -147.07827 22.28716 -33.11526 -13.00506
0.10397 -0.39952 -0.08883 -133.71193 -28.44704 -9.62878 26.321 11.39665 -26.96005 14.18088 -11.69853 -2.10632 141.16307 -2.08934 55.63336 19.6964 54.44375 45.05537 -5.64088 74.28849 -14.2247 -20.98432 66.02993 -117.12015 -35.93428 7.98293 126.68095 13.69364 37.12769 -139.40399 20.26938 -29.10047 -8.13084 111.51037 3.49213 -6.81931 -147.07826 22.28615 -33.11342 -13.00408
0.10305 -0.39981 -0.08935 -133.67015 -28.35565 -9.5396 26.40804 11.1068 -27.03575 13.67294 -11.89565 -2.10636 141.16091 -1.91418 55.63338 19.47017 55.2194 45.38559 -5.55559 74.11098 -13.91417 -21.25379 66.2675 -116.16442 -35.3604 7.87042 126.68095 13.69366 37.12759 -139.54385 20.57967 -29.748 -7.58521 111.55402 3.83892 -10.44601 -147.07826 22.28531 -33.11191 -13.00329
0.10206 -0.40013 -0.09001 -133.60691 -28.26512 -9.45564 26.48558 10.78566 -27.14777 13.14729 -12.09042 -2.1064 141.15187 -1.77233 55.63341 19.21604 56.0833 45.70694 -5.45518 73.94696 -13.63689 -21.50221 66.4237 -115.40682 -34.86666 7.78092 126.68096 13.69367 37.12767 -139.68611 20.97064 -30.58062 -6.87618 111.67136 4.2144 -14.68637 -147.07826 22.28424 -33.10997 -13.00228
0.10117 -0.40041 -0.09033 -133.60203 -28.15941 -9.35091 26.59101 10.50745 -27.16348 12.6307 -12.30311 -2.10644 141.12978 -1.54087 55.63345 18.97106 56.79693 46.05992 -5.38329 73.78347 -13.25712 -21.8392 66.68068 -114.1358 -34.1999 7.62621 126.68097 13.69367 37.12766 -139.83084 21.24356 -31.1448 -6.38655 111.58829 4.54945 -17.93195 -147.07826 22.28358 -33.10878 -13.00166
0.10062 -0.4005 -0.08977 -133.74738 -28.0207 -9.18983 26.76812 10.3709 -26.92284 12.15602 -12.56138 -2.10649 141.10729 -1.06556 55.63358 18.79837 57.07012 46.48773 -5.39634 73.57343 -12.59687 -22.39934 67.34484 -111.41205 -32.9983 7.29226 126.68097 13.69372 37.12766 -139.97842 21.12891 -30.84436 -6.66713 110.98688 4.74423 -18.04516 -147.07826 22.28421 -33.10992 -13.00229
0.10017 -0.40054 -0.08888 -133.9483 -27.87011 -9.01051 26.97212 10.28074 -26.58987 11.69718 -12.8333 -2.10655 141.0739 -0.5071 55.63373 18.64307 57.18489 46.94564 -5.43788 73.36151 -11.8445 -23.03892 68.11192 -108.21427 -31.63683 6.89844 126.68096 13.69364 37.12766 -140.12643 20.89129 -30.26385 -7.17637 110.19349 4.89658 -17.13231 -147.07826 22.28524 -33.1118 -13.00331
0.09968 -0.4006 -0.08815 -134.12101 -27.72929 -8.8455 27.16273 10.16925 -26.30624 11.23922 -13.09073 -2.1066 141.04002 0.00014 55.63387 18.48363 57.3637 47.39065 -5.46419 73.16147 -11.15504 -23.62959 68.7969 -105.3252 -30.39185 6.54295 126.68096 13.69368 37.12765 -140.27102 20.71932 -29.8234 -7.54826 109.49771 5.0736 -16.7519 -147.07826 22.28603 -33.11323 -13.00409
0.09917 -0.40066 -0.08738 -134.30876 -27.56817 -8.65433 27.35948 10.05563 -25.98853 10.74203 -13.38431 -2.10666 141.02539 0.56719 55.63402 18.30215 57.57931 47.83564 -5.49978 72.92092 -10.36993 -24.28353 69.62185 -102.01818 -28.9573 6.13685 126.68096 13.69383 37.12765 -140.43002 20.51397 -29.34436 -8.04131 108.75121 5.23109 -16.13521 -147.07827 22.28706 -33.11512 -13.00512
0.09873 -0.40072 -0.08663 -134.47708 -27.44689 -8.51302 27.54923 9.95854 -25.72095 10.33299 -13.60637 -2.10671 140.96933 1.02845 55.63414 18.17185 57.68127 48.28524 -5.52289 72.76069 -9.76626 -24.81837 70.18197 -99.48552 -27.88391 5.82426 126.68096 13.69327 37.12765 -140.55921 20.34512 -28.87333 -8.34676 108.06725 5.41773 -15.74949 -147.07827 22.28768 -33.11624 -13.00573
0.09846 -0.40081 -0.08604 -134.58205 -27.44254 -8.52122 27.71458 9.89767 -25.61501 10.15499 -13.61516 -2.10674 140.80358 1.17432 55.63414 18.19354 57.48512 48.75626 -5.50522 72.83945 -9.6673 -25.03873 70.00099 -99.11565 -27.81446 5.77286 126.68096 13.69423 37.12765 -140.60062 20.31767 -28.49317 -8.04305 107.60532 5.69783 -16.26379 -147.07826 22.28697 -33.11493 -13.00502
0.09827 -0.40091 -0.08548 -134.66457 -27.47827 -8.57917 27.87146 9.85203 -25.56301 10.0675 -13.55339 -2.10676 140.59671 1.21091 55.63409 18.26436 57.18368 49.2275 -5.47398 72.99579 -9.7578 -25.13029 69.54862 -99.55775 -28.11931 5.81978 126.68096 13.69365 37.12766 -140.61271 20.32869 -28.12923 -7.55096 107.21349 6.00777 -17.03721 -147.07826 22.28583 -33.11285 -13.00387
0.09804 -0.401 -0.0849 -134.75445 -27.49328 -8.60961 28.03116 9.79852 -25.48633 9.94457 -13.53186 -2.10678 140.40785 1.29896 55.63407 18.30398 56.9447 49.688 -5.44857 73.10444 -9.77541 -25.25643 69.21188 -99.69426 -28.27558 5.83023 126.68096 13.69174 37.12766 -140.64169 20.31358 -27.75456 -7.17141 106.78911 6.30201 -17.67956 -147.07826 22.28493 -33.1112 -13.00297
0.09782 -0.40108 -0.08435 -134.85807 -27.51829 -8.65967 28.19643 9.75024 -25.40713 9.79748 -13.47673 -2.1068 140.2213 1.38239 55.63405 18.38166 56.63831 50.19499 -5.42547 73.2638 -9.73635 -25.48239 68.91088 -99.55877 -28.33942 5.80554 126.68097 13.69915 37.12766 -140.65612 20.32888 -27.38156 -6.68852 106.36103 6.60409 -18.3459 -147.07826 22.28387 -33.10924 -13.00189
0.09761 -0.4012 -0.08376 -134.9273 -27.53233 -8.68145 28.34739 9.6945 -25.34716 9.72278 -13.47418 -2.10683 140.02044 1.44839 55.63401 18.39136 56.44971 50.60419 -5.39409 73.33821 -9.85853 -25.47407 68.46994 -100.17315 -28.68169 5.8761 126.68097 13.6858 37.12766 -140.69329 20.29397 -27.01631 -6.36984 105.9596 6.89718 -19.03349 -147.07826 22.28304 -33.10774 -13.00107
0.09739 -0.40144 -0.08302 -134.90426 -27.50494 -8.60861 28.46344 9.61066 -25.32816 9.81933 -13.63788 -2.10687 139.78952 1.49251 55.6339 18.20314 56.60969 50.74811 -5.3419 73.13953 -10.40626 -24.80363 67.70664 -102.79884 -29.74602 6.20415 126.68097 13.62409 37.12766 -140.80559 20.09035 -26.63628 -6.57992 105.61788 7.16053 -19.74938 -147.07826 22.28293 -33.10769 -13.0011
0.09718 -0.40171 -0.08225 -134.84762 -27.46545 -8.50653 28.56471 9.51925 -25.32696 9.98666 -13.85612 -2.10692 139.54581 1.52251 55.63377 17.9445 56.89295 50.79256 -5.28192 72.85626 -11.1054 -23.90983 66.81198 -106.12817 -31.07025 6.62161 126.68096 13.54005 37.12766 -140.94082 19.8391 -26.27045 -6.9555 105.30098 7.41344 -20.47634 -147.07826 22.28305 -33.10812 -13.0014
0.09697 -0.40196 -0.0815 -134.80791 -27.43247 -8.42076 28.67099 9.43357 -25.31739 10.12595 -14.04688 -2.10696 139.30842 1.55889 55.63365 17.71672 57.12229 50.87922 -5.22623 72.62458 -11.71802 -23.14894 65.97825 -109.0457 -32.24668 6.98619 126.68096 13.46042 37.12766 -141.06216 19.62408 -25.92115 -7.23468 104.97153 7.66991 -21.18189 -147.07826 22.28306 -33.10832 -13.00157
0.09673 -0.40222 -0.08074 -134.76046 -27.39666 -8.32385 28.78439 9.33883 -25.31076 10.25144 -14.24671 -2.107 139.06742 1.59172 55.63352 17.49507 57.33944 50.97849 -5.16699 72.34033 -12.41126 -22.2524 65.12918 -112.37739 -33.56067 7.4055 126.68096 13.40443 37.12766 -141.19713 19.34969 -25.47697 -7.5957 104.64963 7.9329 -21.96593 -147.07826 22.28309 -33.10857 -13.00177
0.09655 -0.40248 -0.07999 -134.72139 -27.36329 -8.2427 28.87932 9.26087 -25.30166 10.42075 -14.44135 -2.10705 138.83147 1.62994 55.63342 17.2438 57.61207 51.02798 -5.1134 72.14418 -12.97094 -21.58531 64.28531 -115.00602 -34.64592 7.7312 126.68096 13.29458 37.12766 -141.30951 19.18598 -25.23139 -7.82948 104.31715 8.17883 -22.58472 -147.07826 22.28314 -33.10883 -13.00197
